<svg width="50" height="46" viewBox="0 0 50 46" fill="none" xmlns="http://www.w3.org/2000/svg">
<path fill-rule="evenodd" clip-rule="evenodd" d="M25 0C11.1916 0 0 10.5569 0 23.5822C0 33.9996 7.16112 42.84 17.097 45.9609C18.3477 46.1737 18.7989 45.4479 18.7989 44.8237C18.7989 44.2633 18.7788 42.7785 18.7713 40.8137C11.8157 42.237 10.3469 37.6502 10.3469 37.6502C9.21396 34.9264 7.57219 34.2006 7.57219 34.2006C5.30379 32.737 7.74514 32.7701 7.74514 32.7701C10.2567 32.9356 11.5726 35.2007 11.5726 35.2007C13.8034 38.804 17.4278 37.7637 18.8465 37.1608C19.0746 35.6357 19.7263 34.5954 20.4381 34.0067C14.8887 33.4132 9.05354 31.3893 9.05354 22.3504C9.05354 19.7803 10.0286 17.6713 11.6202 16.0257C11.3671 15.4275 10.5023 13.0277 11.8684 9.78375C11.8684 9.78375 13.9663 9.14773 18.7412 12.1978C20.7805 11.6745 22.8841 11.4073 24.9975 11.4033C27.1109 11.4066 29.2146 11.6737 31.2538 12.1978C36.0312 9.14537 38.1266 9.78375 38.1266 9.78375C39.4927 13.0277 38.6355 15.4275 38.3748 16.0257C39.9789 17.6713 40.9414 19.7779 40.9414 22.3504C40.9414 31.413 35.1013 33.4038 29.5318 33.9878C30.4216 34.716 31.2237 36.1535 31.2237 38.3524C31.2237 41.5065 31.1936 44.0505 31.1936 44.8237C31.1936 45.455 31.6398 46.1879 32.9156 45.9562C42.8464 42.8305 50 33.9972 50 23.5822C50 10.5569 38.8084 0 25 0Z" fill="black"/>
</svg>
