<svg width="50" height="50" viewBox="0 0 50 50" fill="none" xmlns="http://www.w3.org/2000/svg">
<path d="M19.5361 34.1667H15.0917V19.725H19.5361V34.1667ZM17.3139 17.8722C15.7111 17.8722 14.9083 17.1306 14.9083 15.65C14.9034 15.3529 14.9629 15.0582 15.0828 14.7863C15.2026 14.5144 15.3801 14.2717 15.6028 14.075C16.066 13.6429 16.6806 13.4104 17.3139 13.4278C18.9167 13.4278 19.7194 14.1722 19.7194 15.6528C19.7194 17.1333 18.9194 17.8722 17.3139 17.8722ZM36.0194 34.1667H31.4833V26.1111C31.4833 24.0139 30.7389 22.9639 29.2583 22.9639C28.0861 22.9639 27.3167 23.55 26.9417 24.7222C26.8222 24.9083 26.7583 25.2806 26.7583 25.8333V34.1667H22.2222V24.3528C22.2222 22.1306 22.1889 20.5889 22.1306 19.725H26.0194L26.2972 21.6667C27.3167 20.1222 28.7972 19.3528 30.8333 19.3528C32.3806 19.3528 33.6278 19.8917 34.5833 20.9722C35.5444 22.0528 36.0222 23.6111 36.0222 25.65V34.1667H36.0194ZM25 50C11.2139 50 0 38.7861 0 25C0 11.2139 11.2139 0 25 0C38.7861 0 50 11.2139 50 25C50 38.7861 38.7861 50 25 50ZM25 5.55556C14.2806 5.55556 5.55556 14.2806 5.55556 25C5.55556 35.7194 14.2806 44.4444 25 44.4444C35.7194 44.4444 44.4444 35.7194 44.4444 25C44.4444 14.2806 35.7194 5.55556 25 5.55556Z" fill="black"/>
</svg>
