<svg width="50" height="47" viewBox="0 0 50 47" fill="none" xmlns="http://www.w3.org/2000/svg">
<path d="M25 0C11.1942 0 0 10.5225 0 23.5C0 36.4775 11.1942 47 25 47C38.8058 47 50 36.4775 50 23.5C50 10.5225 38.8058 0 25 0ZM37.0145 17.7142C37.0312 17.9607 37.0312 18.2177 37.0312 18.4695C37.0312 26.17 30.7924 35.0402 19.3917 35.0402C15.8761 35.0402 12.6172 34.0802 9.87165 32.4279C10.3739 32.4804 10.8538 32.5013 11.3672 32.5013C14.269 32.5013 16.9364 31.5781 19.0625 30.015C16.3393 29.9625 14.0513 28.2839 13.2701 25.9759C14.2243 26.107 15.0837 26.107 16.0658 25.871C14.6637 25.6032 13.4033 24.8874 12.499 23.8451C11.5946 22.8028 11.102 21.4983 11.1049 20.1533V20.0799C11.9252 20.5153 12.8906 20.7828 13.9007 20.8195C13.0516 20.2876 12.3552 19.567 11.8734 18.7215C11.3915 17.876 11.1391 16.9318 11.1384 15.9727C11.1384 14.8868 11.4397 13.8954 11.981 13.0352C13.5374 14.8361 15.4795 16.3091 17.6812 17.3583C19.8828 18.4076 22.2947 19.0096 24.76 19.1252C23.8839 15.1648 27.0312 11.9598 30.8147 11.9598C32.6004 11.9598 34.2076 12.6627 35.3404 13.7958C36.7411 13.5492 38.0804 13.0561 39.2746 12.3952C38.8114 13.7433 37.8404 14.8816 36.5513 15.6002C37.8013 15.4743 39.0067 15.1491 40.1228 14.6927C39.2801 15.8573 38.2254 16.8906 37.0145 17.7142Z" fill="black"/>
</svg>
